<svg width="816" height="435" viewBox="0 0 816 435" fill="none" xmlns="http://www.w3.org/2000/svg">
<path d="M85.7431 117.833H169.091V138.22H85.7431V117.833ZM85.3434 158.207H168.691V179.394H85.3434V158.207ZM88.3415 2.50474H111.127V69.4629H88.3415V2.50474ZM141.708 2.50474H164.694V69.4629H141.708V2.50474ZM115.724 88.0512H137.711V168.601H115.724V88.0512ZM74.3502 77.6577H181.083V186.79H157.698V98.6446H96.5364V187.989H74.3502V77.6577ZM18.5851 17.6952H65.156V137.62H18.5851V114.435H43.3696V40.6809H18.5851V17.6952ZM6.39274 17.6952H28.1791V153.81H6.39274V17.6952ZM69.5532 23.6915H123.519V45.8776H69.5532V23.6915ZM129.716 23.8914H188.679V45.8776H129.716V23.8914ZM295.612 117.833H378.96V138.22H295.612V117.833ZM295.212 158.207H378.56V179.394H295.212V158.207ZM298.21 2.50474H320.996V69.4629H298.21V2.50474ZM351.577 2.50474H374.562V69.4629H351.577V2.50474ZM325.593 88.0512H347.579V168.601H325.593V88.0512ZM284.219 77.6577H390.952V186.79H367.567V98.6446H306.405V187.989H284.219V77.6577ZM228.454 17.6952H275.025V137.62H228.454V114.435H253.238V40.6809H228.454V17.6952ZM216.261 17.6952H238.048V153.81H216.261V17.6952ZM279.422 23.6915H333.388V45.8776H279.422V23.6915ZM339.584 23.8914H398.547V45.8776H339.584V23.8914ZM485.493 13.6977H524.469V31.0869H485.493V13.6977ZM562.845 13.6977H608.216V31.0869H562.845V13.6977ZM517.273 0.306118H537.86V38.6821H517.273V0.306118ZM552.651 0.306118H573.438V38.4822H552.651V0.306118ZM566.442 56.6709V67.664H581.833V56.6709H566.442ZM549.053 42.08H599.822V82.2549H549.053V42.08ZM508.679 56.6709V67.664H523.469V56.6709H508.679ZM491.689 42.08H541.458V82.2549H491.689V42.08ZM509.278 118.032H595.224V133.423H509.278V118.032ZM509.278 141.218H595.224V156.608H509.278V141.218ZM507.279 164.603H606.817V181.593H507.279V164.603ZM540.059 104.841H560.846V177.196H540.059V104.841ZM518.073 95.2467H602.22V110.237H518.073V187.989H496.886V104.641L505.88 95.2467H518.073ZM508.079 78.4572L527.067 85.0531C518.073 104.441 503.882 124.428 489.491 136.821C487.692 132.423 481.895 121.63 478.497 117.033C490.09 107.439 501.483 93.248 508.079 78.4572ZM536.861 87.6515L557.248 82.2549C560.046 89.2505 563.244 98.6446 564.444 104.841L543.457 111.237C542.258 105.041 539.259 94.847 536.861 87.6515ZM423.532 37.6827H487.292V59.669H423.532V37.6827ZM447.717 0.306118H468.504V187.989H447.717V0.306118ZM446.118 54.0725L458.11 59.669C452.714 90.6496 441.72 129.225 429.328 150.212C426.93 143.017 421.933 132.024 418.535 125.628C430.328 109.038 441.321 77.4579 446.118 54.0725ZM467.904 67.8639C471.902 72.461 486.293 92.4485 489.491 97.4454L476.699 113.635C472.701 103.841 462.707 84.2536 457.71 76.0587L467.904 67.8639ZM632.601 160.606H815.687V181.793H632.601V160.606ZM635.399 38.0825H813.288V59.0694H635.399V38.0825ZM655.787 102.242H793.301V168.401H770.915V122.43H753.925V168.401H731.939V122.43H715.549V168.401H693.563V122.43H676.973V168.401H655.787V102.242ZM664.981 9.3005L685.568 0.106245C693.763 10.1 702.358 23.4916 706.355 32.2861L684.968 43.2792C681.371 34.085 672.576 19.694 664.981 9.3005ZM761.121 0.106245L785.506 7.50162C777.91 19.8939 769.516 32.486 762.52 41.0806L742.532 34.2849C748.928 24.8907 756.923 10.6996 761.121 0.106245ZM739.934 77.4579L752.526 60.6684C771.714 67.2643 800.296 78.4572 815.087 85.8526L801.496 104.841C787.904 97.0456 759.922 85.0531 739.934 77.4579ZM692.564 60.8682L709.353 72.8607C693.763 84.2536 666.98 99.0444 647.992 107.439C644.794 101.843 638.997 92.8482 634 87.8514C652.988 82.2549 679.172 70.4622 692.564 60.8682ZM135.512 264.095L153.501 251.703C164.494 261.097 177.486 274.488 183.482 283.883L164.094 297.474C158.897 287.88 146.305 273.889 135.512 264.095ZM4.59386 303.071H185.081V325.856H4.59386V303.071ZM0.796238 359.635C24.9811 356.037 62.9574 349.442 97.9355 343.046L99.7344 364.832C67.3546 371.628 32.5764 378.623 6.79249 383.82L0.796238 359.635ZM42.5701 270.891H66.755V406.006C66.755 418.998 64.1566 425.594 55.9617 429.392C47.9667 433.189 36.1741 433.989 19.7844 433.989C18.785 427.193 14.7875 416.4 11.1897 409.604C22.5826 410.204 34.1754 410.204 37.7731 410.004C41.3709 410.004 42.5701 409.004 42.5701 405.606V270.891ZM83.5445 247.505L99.7344 267.893C73.7506 275.888 39.572 281.284 10.5901 284.482C9.39086 278.886 6.39274 269.891 3.59449 264.495C31.7769 260.697 62.9574 254.501 83.5445 247.505ZM103.132 247.905H128.316C126.917 328.455 144.906 410.403 163.095 410.403C167.292 410.403 169.491 400.61 170.69 376.824C175.687 382.421 183.882 388.017 190.278 390.616C186.48 425.994 178.885 434.788 160.696 434.788C119.322 434.788 103.732 337.649 103.132 247.905ZM157.498 332.452L178.685 341.447C157.898 378.623 125.318 408.405 89.141 427.593C85.5432 421.597 78.9474 413.601 72.9511 408.205C107.13 392.615 139.709 365.432 157.498 332.452ZM217.86 325.656H392.751V369.229H369.366V345.044H240.047V369.229H217.86V325.656ZM275.824 248.305H296.611V300.072H312.801V248.305H334.587V317.861H275.824V248.305ZM215.462 268.092H394.35V286.681H215.462V268.092ZM242.645 248.505H264.431V275.488C264.431 293.477 257.636 312.864 230.453 324.857C227.654 320.06 221.458 313.064 216.861 309.267C239.447 301.472 242.645 286.881 242.645 275.488V248.505ZM291.814 348.242H315.599V433.789H291.814V348.242ZM237.448 360.035H359.172V379.023H260.634V422.196H237.448V360.035ZM349.978 360.035H373.563V400.61C373.563 410.803 371.364 416.8 363.769 419.998C355.974 423.196 345.581 423.395 331.389 423.395C330.39 417.199 326.992 408.405 323.994 402.608C332.789 403.008 343.582 403.008 346.18 403.008C349.178 403.008 349.978 402.408 349.978 400.21V360.035ZM345.98 247.905H367.367V293.876C367.367 299.673 367.967 301.671 371.165 301.671C373.363 301.671 380.559 301.671 383.157 301.671C386.355 301.671 391.552 301.272 394.35 300.472C394.75 305.869 395.349 313.664 396.149 318.661C392.951 319.66 387.954 319.86 383.357 319.86C380.159 319.86 371.964 319.86 369.166 319.86C349.978 319.86 345.98 312.265 345.98 293.676V247.905ZM423.532 255.5H504.281V277.686H423.532V255.5ZM449.116 310.466V329.054H478.497V310.466H449.116ZM428.928 291.678H499.884V347.843H428.928V291.678ZM473.501 350.641L496.886 355.638C492.689 370.229 488.491 386.019 484.893 396.212L466.505 391.615C469.503 380.422 472.501 363.033 473.501 350.641ZM431.327 357.237L450.515 352.44C454.712 363.633 457.71 378.024 458.31 387.818L437.923 393.014C437.723 383.42 435.125 368.63 431.327 357.237ZM420.134 402.808C441.72 399.011 474.5 392.215 505.481 385.619L507.479 406.006C479.097 412.802 448.516 419.798 425.73 425.194L420.134 402.808ZM509.078 254.301H606.218V274.488H509.078V254.301ZM535.862 334.451V347.243H578.635V334.451H535.862ZM535.862 363.633V376.625H578.635V363.633H535.862ZM535.862 305.469V318.261H578.635V305.469H535.862ZM513.875 288.08H601.62V394.014H513.875V288.08ZM543.057 265.494L570.44 268.492C566.642 281.084 562.445 293.676 559.047 302.271L538.26 298.474C540.259 288.879 542.457 275.288 543.057 265.494ZM532.863 395.013L552.451 407.605C541.458 417.599 523.269 428.592 507.879 434.389C504.281 429.991 497.286 423.196 492.089 418.998C507.08 413.801 524.469 403.208 532.863 395.013ZM560.446 408.005L578.635 396.612C589.428 403.608 604.619 414.401 612.414 421.597L593.226 434.189C586.43 426.993 571.639 415.6 560.446 408.005Z" fill="white"/>
</svg>
